<svg width="1200pt" height="1200pt" version="1.1" viewBox="0 0 1200 1200" xmlns="http://www.w3.org/2000/svg">
 <g>
  <path fill="white" d="m577.8 629.28c-89.641-11.039-173.52-41.398-256.56-74.879 79.801 3.6016 156.48 28.922 236.52 31.68 19.199 0.71875 37.559 7.5586 54.602 17.039 3.1211 1.6797 6.1211 4.4414 11.52 3.2383-4.4414-20.641-8.5195-41.398-18.121-60.121-63.719-123.96-66.84-267-70.199-402.84 21.121 17.52 16.801 48.961 19.441 73.441 3.7188 43.199 16.68 84 30 124.8 0.48047 1.3203 1.0781 2.8789 4.5586 2.5195-14.398-44.641-25.559-89.762-27.84-136.44 0.96094-0.35938 1.9219-0.71875 2.8789-1.0781 44.398 75.84 91.199 154.92 93.238 245.4 1.3203 71.879-33.359 68.039 3.4805 155.04 32.16-129.72 89.641-254.28 182.28-353.4 28.922-32.281 54.961-67.559 85.199-98.52 2.0391-2.1602 4.6797-4.5586 7.9219-3 8.5195 7.5586-5.5195 32.16-11.281 39.719-9.7188 12.48-18.961 25.559-30.359 36.359-53.398 54.84-73.078 130.56-87.602 203.04-2.1602 6-5.0391 12.719-13.922 7.3203-4.0781-2.5195-4.3203 1.5586-5.1602 3.6016-11.398 29.879-25.441 58.441-40.199 87.121 36-37.199 70.559-75.602 104.04-115.08 72.359-69.961 162.24-120.48 247.8-172.08 2.1602 3.4805-0.35937 5.3984-1.6797 7.4414-55.801 82.922-107.4 171.6-182.52 238.92-47.762 43.68-116.64 42.121-167.28 79.199-26.762 19.199-69.602 63.961-38.762 96.48 50.281 47.879 106.68 93.359 138.48 156.48 4.6797 9.3594 3.9609 19.078 3.2383 28.801-5.2812 44.52-14.641 89.762-26.762 132.24-4.9219-24.359-10.199-45.961-17.281-69.238-23.281-85.078-212.64-136.68-288.24-184.92-106.68-57-209.88-120-315.48-178.92-31.199-21.121-87.48-44.039-104.4-77.039 49.68 25.801 96.238 56.641 152.4 68.281 106.69 34.914 211.8 87.594 326.05 89.395z"/>
  <path fill="white" d="m662.64 591.96c-16.441-26.762-17.52-58.922-7.6797-88.32 12.121-33.121 6.7188-66.84 0.48047-100.32-1.8008-9.4805-1.5586-18.602 0.71875-27.84 21.719-74.879 35.762-155.52 60-227.76 4.0781 7.0781 4.4414 15.359 3.4805 22.559-3.8398 27.719 0 54.719 5.2812 81.719 19.199 117.72-36.363 227.77-62.281 339.96z"/>
  <path fill="white" d="m858.36 782.52c31.801 80.762 29.52 169.56 31.922 255 0 11.281-4.1992 15.602-14.52 16.801-17.16 1.6797-55.801 9.3594-51.359-18.719 6.4766-85.32 36.836-166.92 33.957-253.08z"/>
  <path fill="white" d="m766.92 501.6c6.7188-9.8398 19.441-58.32 29.762-56.398 6.6016 0.48047 10.68-3.4805 12.961-9 13.441-31.68 36.48-57 57.602-83.281 48.48-58.441 97.078-119.16 149.88-172.8 2.0391 1.1992 1.8008 3.1211 1.3203 4.9219-6.7188 24.359-14.16 48.48-30.359 68.641-16.078 20.039-27.602 42.238-32.879 67.441-1.6797 8.2812-7.0781 12.961-13.441 17.16-24.84 16.922-49.078 34.922-72.359 54-35.879 34.801-65.879 74.762-100.56 110.76-0.60938-0.48828-1.3281-0.96875-1.9258-1.4453z"/>
  <path fill="white" d="m540.6 504.12c18 14.879 33.238 29.762 50.762 41.16 19.559 12.719 20.762 32.398 26.281 52.68-95.52-65.762-177.48-149.88-263.76-227.4-4.4414-5.7617-24-16.441-21.602-22.922 8.5195-7.0781 39 16.078 46.32 23.039 47.641 43.199 98.762 88.078 161.16 107.76 28.559 6 37.559 23.398 0.83984 25.68z"/>
 </g>
</svg>
