<svg height="1200pt" viewBox="0 0 1200 1200" width="1200pt" xmlns="http://www.w3.org/2000/svg"><path fill="black" d="m860.38 305.73c127.83-114.45 304.62 83.828 304.62 83.828-33.68-212.56-80.832-194.6-172.14-285.91s-178.13-88.32-258.96-41.914c-60.23 34.578-94.684 109.86-108.34 145.99.027343 3.8008.11719 7.6133.13672 11.414 13.734-12.484 27.996-24.098 42.781-35.246 22.77-17.047 46.695-32.539 71.789-45.844 12.504-6.7188 25.359-12.777 38.441-18.242 13.047-5.5469 26.438-10.266 40.004-14.309 27.109-8.1602 55.211-12.836 83.352-13.715-28.07 2.293-55.676 8.3516-82.043 17.75-13.191 4.6641-26.141 9.9766-38.711 16.082-12.602 6.0234-24.93 12.609-36.875 19.824-23.969 14.293-46.648 30.656-68.074 48.441-17.77 14.824-35.004 30.762-50.629 47.516v1.5625c25.328-12.559 51.219-22.715 77.793-31.531 8.3906-2.5781 16.695-5.4102 25.137-7.7695l25.391-6.8281 25.656-5.6602c4.2578-1.0156 8.5664-1.793 12.891-2.4727l12.945-2.1797 12.934-2.1758 13.031-1.5156c8.6953-.91406 17.352-2.1328 26.059-2.793 17.461-.85547 34.859-2.3867 52.328-1.7812 34.918-.48047 69.625 3.8984 103.93 9.2227-34.535-3.9258-69.211-6.8711-103.86-4.9805-17.332.10156-34.543 2.3281-51.758 3.8711-8.5859 1-17.105 2.5586-25.652 3.8125l-12.797 2.0156-12.68 2.6719-12.672 2.668c-4.2305.84375-8.4414 1.7773-12.602 2.9531l-25.02 6.5938-24.688 7.7227c-8.1953 2.6523-16.238 5.7695-24.352 8.625-8.1016 2.9062-15.988 6.3789-23.984 9.5312-7.9219 3.3398-15.734 6.9297-23.547 10.48-11.688 5.5977-23.434 11.547-34.574 17.906-.09375 13.516-.25391 27.023-.48438 40.527 4.293.50781 8.5703 1.0469 12.805 1.7031 8.9727 1.2109 17.828 2.8555 26.703 4.375 8.8242 1.75 17.652 3.4375 26.41 5.3906 8.7266 2.1016 17.508 3.9258 26.164 6.2578 8.6445 2.3672 17.336 4.5156 25.918 7.0625l25.66 7.8398 25.328 8.7891c4.2344 1.4062 8.4141 2.9766 12.551 4.6641l12.457 4.9102 12.441 4.9062c4.1133 1.7188 8.1602 3.6094 12.238 5.4062 8.125 3.6758 16.312 7.1719 24.355 10.988 15.852 8.1523 31.973 15.66 47.219 24.859 31.195 17.059 60.188 37.707 88.438 58.895-29.711-19.191-59.848-37.609-91.871-52.316-15.656-8.0156-32.121-14.316-48.23-21.23-8.1719-3.2031-16.477-6.0742-24.691-9.1211-4.125-1.4805-8.2109-3.0547-12.363-4.457l-12.539-3.9531-12.527-3.9531c-4.1562-1.3633-8.3477-2.6172-12.594-3.6992l-25.328-6.8477-25.543-5.8867c-8.5234-1.8945-17.133-3.3867-25.68-5.0977-8.5547-1.6797-17.203-2.8438-25.785-4.2891-8.6094-1.293-17.246-2.3242-25.859-3.418-8.6367-.85547-17.258-1.8477-25.875-2.3945-3.4375-.27734-6.918-.49609-10.383-.67969-.48828 20.484-1.1094 40.969-1.8594 61.465-.85547 22.57-1.9102 45.133-3.1367 67.68 13.27 6.4102 25.98 13.121 38.68 20.203 7.5391 4.1562 14.91 8.5859 22.367 12.863l21.977 13.465c29.043 18.348 57.023 38.293 83.855 59.605 6.6328 5.4297 13.48 10.574 19.918 16.23l19.375 16.863c6.4648 5.6016 12.484 11.719 18.738 17.547l9.293 8.8398c3.0977 2.9453 5.9453 6.1523 8.9258 9.2109l17.684 18.555 16.676 19.453 8.3086 9.7266 7.7188 10.211 15.402 20.398-16.434-19.562-8.207-9.7617-8.7812-9.2578-17.562-18.469-18.508-17.504c-3.1133-2.8828-6.0898-5.9062-9.3164-8.6641l-9.6641-8.2812c-6.5-5.4531-12.746-11.184-19.438-16.398l-20.016-15.672c-6.6406-5.2539-13.688-9.9922-20.504-15.008-27.57-19.656-56.145-37.863-85.613-54.41l-22.258-12.098c-7.5312-3.8125-14.98-7.7812-22.562-11.461-10.309-5.0781-20.832-9.9922-31.316-14.57-2.6445 44.055-6.043 88.062-10.375 131.98-1.9414 19.484-4.0664 38.957-6.3867 58.402 10.234 5.9766 19.418 12.363 28.641 19.148l7.7227 5.8047 7.5156 6.0469c5.0625 3.9609 9.8711 8.2109 14.719 12.41 19.297 16.895 37.242 35.148 54.227 54.168 8.207 9.7656 16.684 19.277 24.34 29.461 3.875 5.0508 7.9219 9.957 11.645 15.113l11.09 15.512 5.5156 7.7656 5.2031 7.9805 10.395 15.945c6.7109 10.766 12.98 21.797 19.48 32.66-7.1055-10.5-13.965-21.141-21.246-31.484l-11.23-15.293-5.6094-7.6367-5.9102-7.4102-11.855-14.77c-3.9727-4.9023-8.2578-9.543-12.367-14.32-8.125-9.6445-17.035-18.578-25.648-27.742-17.785-17.809-36.402-34.734-56.129-50.148-4.9531-3.8242-9.8594-7.6992-14.988-11.266l-7.6055-5.4531-7.7695-5.1875c-7.2539-4.7656-14.816-9.4414-22.32-13.582-6.0742 48.156-13.484 96.137-22.879 143.75-7.0352 36.348-15.57 72.418-25.66 108.02-10.141 35.574-21.906 70.734-36.719 104.59 13.504-34.398 23.879-69.875 32.617-105.67 8.6875-35.82 15.797-72.008 21.41-108.43 1.7227-10.914 12.711-81.312 14.234-92.254-135.11 47.059-219.12 134.71-219.12 134.71s70.391-81.746 219.09-148.99c7.6484-57.762 5.1406-55.066 8.6914-113.21.96094-15.996 1.7773-31.996 2.5039-48.008-10.852 1.9258-21.824 4.1797-32.617 6.6602-8.125 1.8047-16.176 3.9688-24.277 5.9375l-24.109 6.7031c-32.02 9.4453-63.477 20.926-94.164 34.25-7.6094 3.4609-15.414 6.5547-22.883 10.328l-22.504 11.168c-7.5078 3.7227-14.664 8.0859-22.023 12.105l-10.977 6.1523c-3.6445 2.0742-7.1016 4.4492-10.664 6.6602l-21.25 13.516-20.402 14.781-10.203 7.4219-9.6797 8.082-19.395 16.191 18.527-17.199 9.2812-8.6133 9.8281-7.9688 19.723-15.926 20.652-14.715c3.4727-2.4141 6.8398-5 10.398-7.2812l10.73-6.7773c7.2031-4.4375 14.219-9.2305 21.594-13.387l22.148-12.48c7.3633-4.2148 15.07-7.7539 22.602-11.664 30.363-15.121 61.676-28.453 93.754-39.773l24.195-8.1172c8.1523-2.4414 16.254-5.082 24.469-7.3633 12.629-3.5977 25.172-6.875 38.117-9.75 1.9766-50.574 2.8672-101.19 2.8477-151.79-.003906-3.1133-.054688-6.2305-.066406-9.3477-16.824 1.2969-33.934 3.1719-50.816 5.3438-20.891 2.707-41.73 5.9766-62.465 9.8359-41.453 7.7539-82.586 17.609-122.72 30.676-20.098 6.4375-39.91 13.777-59.312 22.082-9.7773 4.0039-19.254 8.6289-28.828 13.098-9.3711 4.8438-18.844 9.543-27.926 14.93-36.699 20.812-70.633 47.266-97.277 80.535 24.934-34.551 57.883-63.066 93.977-85.973 8.9375-5.9141 18.273-11.148 27.543-16.535 9.457-5.0078 18.855-10.188 28.555-14.734 19.258-9.4023 38.984-17.852 59.043-25.398 40.062-15.289 81.289-27.371 123-37.348 20.863-4.9648 41.871-9.3477 63-13.164 17.945-3.2148 35.77-6.0664 54.055-8.3359-.23047-27.348-.66797-54.699-1.4297-82.023-16.422 3.9102-33.262 5.2344-49.758 4.7305-19.785-.55859-39.113-3.6836-58.059-7.5625-37.895-7.875-74.539-18.801-111.86-26.391-37.215-7.6914-75.297-12.086-113.25-8.793-37.977 2.918-75.039 14.613-109.08 32.07 33.352-18.691 70.246-31.902 108.64-36.289 38.344-4.7656 77.312-1.7227 115.24 4.6719 38.008 6.2891 75.27 15.902 112.63 22.223 18.664 3.1133 37.402 5.3984 55.934 5.2266 16.762-.10938 33.328-2.2305 48.98-7.0117-.09375-2.8516-.1875-5.7031-.28906-8.5547-.60156.058594-1.1992.12891-1.8008.15234-7.3555.32422-14.266-1.4414-20.055-4.0742-11.777-5.207-21.137-12.586-30.223-19.961-17.91-15.012-34.059-31.133-51.012-46.41-16.852-15.348-34.289-30-53.066-42.871-9.4141-6.3789-19.117-12.363-29.223-17.648-10.137-5.2148-20.625-9.7773-31.438-13.559 11.02 3.1055 21.828 7.0273 32.359 11.648 10.5 4.6914 20.668 10.125 30.586 15.984 19.777 11.832 38.375 25.594 56.289 39.988 17.973 14.297 35.266 29.512 53.332 42.828 9.0195 6.5039 18.398 12.754 27.871 16.199 4.7188 1.8359 9.3555 2.4531 13.391 2.0117.84375-.097657 1.6484-.28125 2.4453-.48828-.37891-9.6523-.79688-19.297-1.2461-28.934-43.289-93.266-203.19-161.28-279.66-137.66-57.566 17.781-109.77 36.926-109.77 36.926-193.6 96.797-151.69 366.24-151.69 366.24 52.891-126.74 170.65-148.69 170.65-148.69s161.67-14.969 138.71 17.965c-22.953 32.934-42.914 10.977-144.7 52.891-70.152 28.887-127.51 86.215-156.38 119.06-16.359 18.609-25.48 42.57-25.066 67.348 1.4375 86.285 65.691 160.88 65.691 160.88 9.0859-102.24 191.93-198.21 279.59-238.55 12.723-5.8555 24.359 9.8867 15.02 20.324-22.59 25.238-58.184 58.695-108.99 89.488-62.148 37.664-117.98 87.176-150.84 118.73-20.371 19.555-26.305 50-14.32 75.57 33.34 71.109 87.324 111.07 87.324 111.07 15.965-139.71 228.8-244.36 228.8-244.36.55078 60.914-233.43 219.4-213.83 250.34 22.953 47.902 35.926 30.938 66.863 66.863 15.801 18.348 32.211 15.48 47.43 27.535-1.3477-15.582 31.098-67.293 109.07-137.66 44.812-40.438 69.227-8.6289 42.234 10.898-41.727 30.184-80.348 77.602-105.82 157.13 67.207-12.719 117.43 123.26 117.43 123.26 42.664-90.562 180.09-70.902 180.09-70.902s24.699-36.676-15.719-124.25c-12.125-26.27-16.703-45.402-17.176-59.312-.78125-23.105 22.621-38.551 43.488-28.605 91.543 43.637 46.289 199.44 46.289 199.44 49.492-18.836 92.582-60.227 119.81-91.32 23.723-27.094 33.297-64.207 24.137-99.031-40.191-152.84-243.99-244.5-146.19-244.5 163.96 0 175.14 278.43 175.14 278.43 44.836-24.543 91.457-73.785 119.79-106.82 23.285-27.152 27.305-66.109 9.5547-97.164-72.301-126.5-334.53-268.9-198.2-263.8 160.17 5.9883 266.45 233.52 266.45 233.52 221.54-381.96-312.11-332.32-247.75-389.95z"/></svg>